<?xml version="1.0" encoding="UTF-8" standalone="no"?>
<!DOCTYPE svg PUBLIC "-//W3C//DTD SVG 1.1//EN" "http://www.w3.org/Graphics/SVG/1.1/DTD/svg11.dtd">
<svg width="100%" height="100%" viewBox="0 0 500 140" version="1.1" xmlns="http://www.w3.org/2000/svg" xmlns:xlink="http://www.w3.org/1999/xlink" xml:space="preserve" xmlns:serif="http://www.serif.com/" style="fill-rule:evenodd;clip-rule:evenodd;stroke-linejoin:round;stroke-miterlimit:2;">
    <g>
        <g>
            <path d="M26.07,83.79L26.07,80.19L38.2,80.19L38.2,83.79C38.2,86.49 39.82,88.28 42.69,88.28C45.56,88.28 47.18,86.48 47.18,83.79L47.18,76.87C47.18,74.17 45.56,72.38 42.69,72.38C32.53,72.38 26.06,65.73 26.06,55.75L26.06,46.76C26.06,36.78 32.53,30.13 42.69,30.13C52.85,30.13 59.32,36.78 59.32,46.76L59.32,50.35L47.2,50.35L47.2,46.76C47.2,44.06 45.58,42.27 42.71,42.27C39.84,42.27 38.22,44.07 38.22,46.76L38.22,55.75C38.22,58.45 39.84,60.24 42.71,60.24C52.87,60.24 59.34,66.89 59.34,76.87L59.34,83.79C59.34,93.77 52.87,100.42 42.71,100.42C32.55,100.42 26.07,93.76 26.07,83.79Z" style="fill:rgb(65,65,65);fill-rule:nonzero;"/>
            <path d="M69.93,83.88L69.93,59.88L61.84,59.88L61.84,49.54L69.93,49.54L69.93,37.86L81.16,37.86L81.16,49.54L90.6,49.54L90.6,59.88L81.16,59.88L81.16,83.88C81.16,86.58 82.78,88.37 85.65,88.37L90.59,88.37L90.59,99.6L85.65,99.6C76.04,99.6 69.93,93.85 69.93,83.88Z" style="fill:rgb(65,65,65);fill-rule:nonzero;"/>
            <path d="M93.03,83.52L93.03,65C93.03,55.02 99.14,48.37 108.76,48.37C118.38,48.37 124.49,55.02 124.49,65L124.49,83.51C124.49,93.49 118.38,100.14 108.76,100.14C99.14,100.14 93.03,93.49 93.03,83.52ZM113.25,84.42L113.25,64.1C113.25,61.4 111.63,59.61 108.76,59.61C105.89,59.61 104.27,61.41 104.27,64.1L104.27,84.41C104.27,87.11 105.89,88.9 108.76,88.9C111.63,88.9 113.25,87.11 113.25,84.42Z" style="fill:rgb(65,65,65);fill-rule:nonzero;"/>
            <path d="M160.33,64.1L160.33,84.41C160.33,97.08 154.31,100.14 148.47,100.14C144.88,100.14 142.09,98.97 140.11,96.9L140.11,115.15L128.88,115.15L128.88,49.54L140.11,49.54L140.11,51.61C142.09,49.54 144.87,48.37 148.47,48.37C154.3,48.38 160.33,51.43 160.33,64.1ZM149.09,64.1C149.09,61.4 147.47,59.61 144.6,59.61C141.73,59.61 140.11,61.41 140.11,64.1L140.11,84.41C140.11,87.11 141.73,88.9 144.6,88.9C147.47,88.9 149.09,87.1 149.09,84.41L149.09,64.1Z" style="fill:rgb(65,65,65);fill-rule:nonzero;"/>
            <rect x="166.33" y="86.84" width="12.13" height="12.13" style="fill:rgb(65,65,65);fill-rule:nonzero;"/>
            <path d="M192.3,83.79L192.3,80.19L204.43,80.19L204.43,83.79C204.43,86.49 206.05,88.28 208.92,88.28C211.79,88.28 213.41,86.48 213.41,83.79L213.41,76.87C213.41,74.17 211.79,72.38 208.92,72.38C198.76,72.38 192.29,65.73 192.29,55.75L192.29,46.76C192.29,36.78 198.76,30.13 208.92,30.13C219.08,30.13 225.55,36.78 225.55,46.76L225.55,50.35L213.42,50.35L213.42,46.76C213.42,44.06 211.8,42.27 208.93,42.27C206.06,42.27 204.44,44.07 204.44,46.76L204.44,55.75C204.44,58.45 206.06,60.24 208.93,60.24C219.09,60.24 225.56,66.89 225.56,76.87L225.56,83.79C225.56,93.77 219.09,100.42 208.93,100.42C198.77,100.42 192.3,93.76 192.3,83.79Z" style="fill:rgb(65,65,65);fill-rule:nonzero;"/>
            <path d="M280.54,49.54L271.82,98.97L260.32,98.97L254.57,71.38L248.73,98.97L237.23,98.97L228.51,49.54L240.19,49.54L243.96,79.74L249.62,49.54L259.42,49.54L265.08,79.74L268.85,49.54L280.54,49.54Z" style="fill:rgb(65,65,65);fill-rule:nonzero;"/>
            <path d="M312.89,65L312.89,98.97L301.66,98.97L301.66,96.72C299.59,98.97 296.63,100.14 292.94,100.14C284.85,100.14 280.54,94.48 280.54,86.75C280.54,79.92 283.87,76.5 287.82,74.35C293.93,70.93 301.66,70.4 301.66,65L301.66,64.1C301.66,61.4 300.04,59.61 297.17,59.61C294.3,59.61 292.68,61.41 292.68,64.1L292.68,66.8L281.45,66.8L281.45,65C281.45,55.02 287.56,48.37 297.18,48.37C306.77,48.38 312.89,55.03 312.89,65ZM301.65,84.68L301.65,77.76C300.03,79.2 297.43,79.74 295.27,80.82C293.29,81.81 291.77,82.98 291.77,85.31C291.77,87.64 293.39,89.8 296.62,89.8C299.13,89.81 301.65,88.55 301.65,84.68Z" style="fill:rgb(65,65,65);fill-rule:nonzero;"/>
            <path d="M349.25,64.1L349.25,84.41C349.25,97.08 343.23,100.14 337.39,100.14C333.79,100.14 331.01,98.97 329.03,96.9L329.03,115.15L317.8,115.15L317.8,49.54L329.03,49.54L329.03,51.61C331.01,49.54 333.79,48.37 337.39,48.37C343.23,48.38 349.25,51.43 349.25,64.1ZM338.01,64.1C338.01,61.4 336.39,59.61 333.52,59.61C330.65,59.61 329.03,61.41 329.03,64.1L329.03,84.41C329.03,87.11 330.65,88.9 333.52,88.9C336.39,88.9 338.01,87.1 338.01,84.41L338.01,64.1Z" style="fill:rgb(65,65,65);fill-rule:nonzero;"/>
            <rect x="355.25" y="86.84" width="12.13" height="12.13" style="fill:rgb(65,65,65);fill-rule:nonzero;"/>
            <path d="M381.05,83.79L386.26,46.76C387.7,36.78 395.07,30.13 405.13,30.13C415.2,30.13 421.04,36.78 419.51,46.76L418.97,50.35L406.84,50.35L407.38,46.76C407.83,43.88 406.12,42.27 403.51,42.27C400.63,42.27 398.75,44.07 398.39,46.76L393.18,83.79C392.82,86.49 394.17,88.28 397.04,88.28C399.83,88.28 401.8,86.48 402.16,83.79L403.06,77.41L397.4,77.41L399.11,65.28L416.9,65.28L414.29,83.79C412.85,93.77 405.48,100.42 395.33,100.42C385.27,100.41 379.61,93.76 381.05,83.79Z" style="fill:rgb(65,65,65);fill-rule:nonzero;"/>
            <path d="M420.88,83.79L426.09,46.76C427.53,36.78 434.9,30.13 444.96,30.13C455.03,30.13 460.78,36.78 459.34,46.76L454.13,83.79C452.69,93.77 445.32,100.42 435.17,100.42C425.1,100.41 419.44,93.76 420.88,83.79ZM442,83.79L447.21,46.76C447.57,44.06 446.13,42.27 443.34,42.27C440.46,42.27 438.58,44.07 438.22,46.76L433.01,83.79C432.65,86.49 434,88.28 436.87,88.28C439.66,88.28 441.64,86.48 442,83.79Z" style="fill:rgb(65,65,65);fill-rule:nonzero;"/>
            <path d="M462.36,85.49L474.49,85.49L472.6,98.97L460.47,98.97L462.36,85.49ZM469.91,31.57L482.04,31.57L475.21,80.1L463.08,80.1L469.91,31.57Z" style="fill:rgb(65,65,65);fill-rule:nonzero;"/>
        </g>
    </g>
</svg>
