<?xml version="1.0" encoding="UTF-8" standalone="no"?>
<!DOCTYPE svg PUBLIC "-//W3C//DTD SVG 1.1//EN" "http://www.w3.org/Graphics/SVG/1.1/DTD/svg11.dtd">
<svg width="100%" height="100%" viewBox="0 0 639 140" version="1.1" xmlns="http://www.w3.org/2000/svg" xmlns:xlink="http://www.w3.org/1999/xlink" xml:space="preserve" xmlns:serif="http://www.serif.com/" style="fill-rule:evenodd;clip-rule:evenodd;stroke-linejoin:round;stroke-miterlimit:2;">
    <g transform="matrix(0.898592,0,0,1,0.79,0)">
        <rect x="0" y="0" width="710" height="140" style="fill:rgb(42,208,61);"/>
    </g>
    <g transform="matrix(1,0,0,1,-41.21,0)">
        <path d="M226.7,69.69L156.4,140L41.21,140L111.53,69.69L41.83,0L157.01,0L226.7,69.69Z" style="fill:white;fill-rule:nonzero;"/>
    </g>
    <g transform="matrix(1,0,0,1,-41.21,0)">
        <path d="M453.36,69.69L383.05,140L267.25,140L337.56,69.69L267.86,0L383.66,0L453.36,69.69Z" style="fill:white;fill-rule:nonzero;"/>
    </g>
    <g transform="matrix(1,0,0,1,-41.21,0)">
        <path d="M679.36,69.69L609.05,140L493.25,140L563.56,69.69L493.86,0L609.66,0L679.36,69.69Z" style="fill:white;fill-rule:nonzero;"/>
    </g>
    <g transform="matrix(1,0,0,1,-41.21,0)">
        <path d="M143.07,83.79L143.07,80.19L155.2,80.19L155.2,83.79C155.2,86.49 156.82,88.28 159.69,88.28C162.56,88.28 164.18,86.48 164.18,83.79L164.18,76.87C164.18,74.17 162.56,72.38 159.69,72.38C149.53,72.38 143.06,65.73 143.06,55.75L143.06,46.76C143.06,36.78 149.53,30.13 159.69,30.13C169.85,30.13 176.32,36.78 176.32,46.76L176.32,50.35L164.2,50.35L164.2,46.76C164.2,44.06 162.58,42.27 159.71,42.27C156.84,42.27 155.22,44.07 155.22,46.76L155.22,55.75C155.22,58.45 156.84,60.24 159.71,60.24C169.87,60.24 176.34,66.89 176.34,76.87L176.34,83.79C176.34,93.77 169.87,100.42 159.71,100.42C149.55,100.42 143.07,93.76 143.07,83.79Z" style="fill:rgb(65,65,65);fill-rule:nonzero;"/>
    </g>
    <g transform="matrix(1,0,0,1,-41.21,0)">
        <path d="M186.93,83.88L186.93,59.88L178.84,59.88L178.84,49.54L186.93,49.54L186.93,37.86L198.16,37.86L198.16,49.54L207.6,49.54L207.6,59.88L198.16,59.88L198.16,83.88C198.16,86.58 199.78,88.37 202.65,88.37L207.59,88.37L207.59,99.6L202.65,99.6C193.04,99.6 186.93,93.85 186.93,83.88Z" style="fill:rgb(65,65,65);fill-rule:nonzero;"/>
    </g>
    <g transform="matrix(1,0,0,1,-41.21,0)">
        <path d="M210.03,83.52L210.03,65C210.03,55.02 216.14,48.37 225.76,48.37C235.38,48.37 241.49,55.02 241.49,65L241.49,83.51C241.49,93.49 235.38,100.14 225.76,100.14C216.14,100.14 210.03,93.49 210.03,83.52ZM230.25,84.42L230.25,64.1C230.25,61.4 228.63,59.61 225.76,59.61C222.89,59.61 221.27,61.41 221.27,64.1L221.27,84.41C221.27,87.11 222.89,88.9 225.76,88.9C228.63,88.9 230.25,87.11 230.25,84.42Z" style="fill:rgb(65,65,65);fill-rule:nonzero;"/>
    </g>
    <g transform="matrix(1,0,0,1,-41.21,0)">
        <path d="M277.33,64.1L277.33,84.41C277.33,97.08 271.31,100.14 265.47,100.14C261.88,100.14 259.09,98.97 257.11,96.9L257.11,115.15L245.88,115.15L245.88,49.54L257.11,49.54L257.11,51.61C259.09,49.54 261.87,48.37 265.47,48.37C271.3,48.38 277.33,51.43 277.33,64.1ZM266.09,64.1C266.09,61.4 264.47,59.61 261.6,59.61C258.73,59.61 257.11,61.41 257.11,64.1L257.11,84.41C257.11,87.11 258.73,88.9 261.6,88.9C264.47,88.9 266.09,87.1 266.09,84.41L266.09,64.1Z" style="fill:rgb(65,65,65);fill-rule:nonzero;"/>
    </g>
    <g transform="matrix(1,0,0,1,-41.21,0)">
        <rect x="283.33" y="86.84" width="12.13" height="12.13" style="fill:rgb(65,65,65);fill-rule:nonzero;"/>
    </g>
    <g transform="matrix(1,0,0,1,-41.21,0)">
        <path d="M309.3,83.79L309.3,80.19L321.43,80.19L321.43,83.79C321.43,86.49 323.05,88.28 325.92,88.28C328.79,88.28 330.41,86.48 330.41,83.79L330.41,76.87C330.41,74.17 328.79,72.38 325.92,72.38C315.76,72.38 309.29,65.73 309.29,55.75L309.29,46.76C309.29,36.78 315.76,30.13 325.92,30.13C336.08,30.13 342.55,36.78 342.55,46.76L342.55,50.35L330.42,50.35L330.42,46.76C330.42,44.06 328.8,42.27 325.93,42.27C323.06,42.27 321.44,44.07 321.44,46.76L321.44,55.75C321.44,58.45 323.06,60.24 325.93,60.24C336.09,60.24 342.56,66.89 342.56,76.87L342.56,83.79C342.56,93.77 336.09,100.42 325.93,100.42C315.77,100.42 309.3,93.76 309.3,83.79Z" style="fill:rgb(65,65,65);fill-rule:nonzero;"/>
    </g>
    <g transform="matrix(1,0,0,1,-41.21,0)">
        <path d="M397.54,49.54L388.82,98.97L377.32,98.97L371.57,71.38L365.73,98.97L354.23,98.97L345.51,49.54L357.19,49.54L360.96,79.74L366.62,49.54L376.42,49.54L382.08,79.74L385.85,49.54L397.54,49.54Z" style="fill:rgb(65,65,65);fill-rule:nonzero;"/>
    </g>
    <g transform="matrix(1,0,0,1,-41.21,0)">
        <path d="M429.89,65L429.89,98.97L418.66,98.97L418.66,96.72C416.59,98.97 413.63,100.14 409.94,100.14C401.85,100.14 397.54,94.48 397.54,86.75C397.54,79.92 400.87,76.5 404.82,74.35C410.93,70.93 418.66,70.4 418.66,65L418.66,64.1C418.66,61.4 417.04,59.61 414.17,59.61C411.3,59.61 409.68,61.41 409.68,64.1L409.68,66.8L398.45,66.8L398.45,65C398.45,55.02 404.56,48.37 414.18,48.37C423.77,48.38 429.89,55.03 429.89,65ZM418.65,84.68L418.65,77.76C417.03,79.2 414.43,79.74 412.27,80.82C410.29,81.81 408.77,82.98 408.77,85.31C408.77,87.64 410.39,89.8 413.62,89.8C416.13,89.81 418.65,88.55 418.65,84.68Z" style="fill:rgb(65,65,65);fill-rule:nonzero;"/>
    </g>
    <g transform="matrix(1,0,0,1,-41.21,0)">
        <path d="M466.25,64.1L466.25,84.41C466.25,97.08 460.23,100.14 454.39,100.14C450.79,100.14 448.01,98.97 446.03,96.9L446.03,115.15L434.8,115.15L434.8,49.54L446.03,49.54L446.03,51.61C448.01,49.54 450.79,48.37 454.39,48.37C460.23,48.38 466.25,51.43 466.25,64.1ZM455.01,64.1C455.01,61.4 453.39,59.61 450.52,59.61C447.65,59.61 446.03,61.41 446.03,64.1L446.03,84.41C446.03,87.11 447.65,88.9 450.52,88.9C453.39,88.9 455.01,87.1 455.01,84.41L455.01,64.1Z" style="fill:rgb(65,65,65);fill-rule:nonzero;"/>
    </g>
    <g transform="matrix(1,0,0,1,-41.21,0)">
        <rect x="472.25" y="86.84" width="12.13" height="12.13" style="fill:rgb(65,65,65);fill-rule:nonzero;"/>
    </g>
    <g transform="matrix(1,0,0,1,-41.21,0)">
        <path d="M498.05,83.79L503.26,46.76C504.7,36.78 512.07,30.13 522.13,30.13C532.2,30.13 538.04,36.78 536.51,46.76L535.97,50.35L523.84,50.35L524.38,46.76C524.83,43.88 523.12,42.27 520.51,42.27C517.63,42.27 515.75,44.07 515.39,46.76L510.18,83.79C509.82,86.49 511.17,88.28 514.04,88.28C516.83,88.28 518.8,86.48 519.16,83.79L520.06,77.41L514.4,77.41L516.11,65.28L533.9,65.28L531.29,83.79C529.85,93.77 522.48,100.42 512.33,100.42C502.27,100.41 496.61,93.76 498.05,83.79Z" style="fill:rgb(65,65,65);fill-rule:nonzero;"/>
    </g>
    <g transform="matrix(1,0,0,1,-41.21,0)">
        <path d="M537.88,83.79L543.09,46.76C544.53,36.78 551.9,30.13 561.96,30.13C572.03,30.13 577.78,36.78 576.34,46.76L571.13,83.79C569.69,93.77 562.32,100.42 552.17,100.42C542.1,100.41 536.44,93.76 537.88,83.79ZM559,83.79L564.21,46.76C564.57,44.06 563.13,42.27 560.34,42.27C557.46,42.27 555.58,44.07 555.22,46.76L550.01,83.79C549.65,86.49 551,88.28 553.87,88.28C556.66,88.28 558.64,86.48 559,83.79Z" style="fill:rgb(65,65,65);fill-rule:nonzero;"/>
    </g>
    <g transform="matrix(1,0,0,1,-41.21,0)">
        <path d="M579.36,85.49L591.49,85.49L589.6,98.97L577.47,98.97L579.36,85.49ZM586.91,31.57L599.04,31.57L592.21,80.1L580.08,80.1L586.91,31.57Z" style="fill:rgb(65,65,65);fill-rule:nonzero;"/>
    </g>
</svg>
