<?xml version="1.0" encoding="utf-8"?>
<!-- Generator: Adobe Illustrator 24.2.1, SVG Export Plug-In . SVG Version: 6.00 Build 0)  -->
<svg version="1.1" id="Layer_1" xmlns="http://www.w3.org/2000/svg" xmlns:xlink="http://www.w3.org/1999/xlink" x="0px" y="0px"
	 viewBox="0 0 710 140" style="enable-background:new 0 0 710 140;" xml:space="preserve">
<style type="text/css">
	.st0{fill:#1ce333;}
	.st1{fill:#FFFFFF;}
	.st2{fill:#414141;}
</style>
<g>
	<rect class="st0" width="710" height="140"/>
</g>
<g>
	<g>
		<polygon class="st1" points="226.7,69.69 156.4,140 41.21,140 111.53,69.69 41.83,0 157.01,0 		"/>
	</g>
	<g>
		<polygon class="st1" points="453.36,69.69 383.05,140 267.25,140 337.56,69.69 267.86,0 383.66,0 		"/>
	</g>
</g>
<g>
	<polygon class="st1" points="679.36,69.69 609.05,140 493.25,140 563.56,69.69 493.86,0 609.66,0 	"/>
</g>
<g>
	<path class="st2" d="M143.07,83.79v-3.6h12.13v3.6c0,2.7,1.62,4.49,4.49,4.49s4.49-1.8,4.49-4.49v-6.92c0-2.7-1.62-4.49-4.49-4.49
		c-10.16,0-16.63-6.65-16.63-16.63v-8.99c0-9.98,6.47-16.63,16.63-16.63s16.63,6.65,16.63,16.63v3.59H164.2v-3.59
		c0-2.7-1.62-4.49-4.49-4.49s-4.49,1.8-4.49,4.49v8.99c0,2.7,1.62,4.49,4.49,4.49c10.16,0,16.63,6.65,16.63,16.63v6.92
		c0,9.98-6.47,16.63-16.63,16.63S143.07,93.76,143.07,83.79z"/>
	<path class="st2" d="M186.93,83.88v-24h-8.09V49.54h8.09V37.86h11.23v11.68h9.44v10.34h-9.44v24c0,2.7,1.62,4.49,4.49,4.49h4.94
		V99.6h-4.94C193.04,99.6,186.93,93.85,186.93,83.88z"/>
	<path class="st2" d="M210.03,83.52V65c0-9.98,6.11-16.63,15.73-16.63c9.62,0,15.73,6.65,15.73,16.63v18.51
		c0,9.98-6.11,16.63-15.73,16.63C216.14,100.14,210.03,93.49,210.03,83.52z M230.25,84.42V64.1c0-2.7-1.62-4.49-4.49-4.49
		s-4.49,1.8-4.49,4.49v20.31c0,2.7,1.62,4.49,4.49,4.49S230.25,87.11,230.25,84.42z"/>
	<path class="st2" d="M277.33,64.1v20.31c0,12.67-6.02,15.73-11.86,15.73c-3.59,0-6.38-1.17-8.36-3.24v18.25h-11.23V49.54h11.23
		v2.07c1.98-2.07,4.76-3.24,8.36-3.24C271.3,48.38,277.33,51.43,277.33,64.1z M266.09,64.1c0-2.7-1.62-4.49-4.49-4.49
		s-4.49,1.8-4.49,4.49v20.31c0,2.7,1.62,4.49,4.49,4.49s4.49-1.8,4.49-4.49V64.1z"/>
	<path class="st2" d="M283.33,86.84h12.13v12.13h-12.13V86.84z"/>
	<path class="st2" d="M309.3,83.79v-3.6h12.13v3.6c0,2.7,1.62,4.49,4.49,4.49s4.49-1.8,4.49-4.49v-6.92c0-2.7-1.62-4.49-4.49-4.49
		c-10.16,0-16.63-6.65-16.63-16.63v-8.99c0-9.98,6.47-16.63,16.63-16.63s16.63,6.65,16.63,16.63v3.59h-12.13v-3.59
		c0-2.7-1.62-4.49-4.49-4.49s-4.49,1.8-4.49,4.49v8.99c0,2.7,1.62,4.49,4.49,4.49c10.16,0,16.63,6.65,16.63,16.63v6.92
		c0,9.98-6.47,16.63-16.63,16.63S309.3,93.76,309.3,83.79z"/>
	<path class="st2" d="M397.54,49.54l-8.72,49.43h-11.5l-5.75-27.59l-5.84,27.59h-11.5l-8.72-49.43h11.68l3.77,30.2l5.66-30.2h9.8
		l5.66,30.2l3.77-30.2H397.54z"/>
	<path class="st2" d="M429.89,65v33.97h-11.23v-2.25c-2.07,2.25-5.03,3.42-8.72,3.42c-8.09,0-12.4-5.66-12.4-13.39
		c0-6.83,3.33-10.25,7.28-12.4c6.11-3.42,13.84-3.95,13.84-9.35v-0.9c0-2.7-1.62-4.49-4.49-4.49s-4.49,1.8-4.49,4.49v2.7h-11.23V65
		c0-9.98,6.11-16.63,15.73-16.63C423.77,48.38,429.89,55.03,429.89,65z M418.65,84.68v-6.92c-1.62,1.44-4.22,1.98-6.38,3.06
		c-1.98,0.99-3.5,2.16-3.5,4.49s1.62,4.49,4.85,4.49C416.13,89.81,418.65,88.55,418.65,84.68z"/>
	<path class="st2" d="M466.25,64.1v20.31c0,12.67-6.02,15.73-11.86,15.73c-3.6,0-6.38-1.17-8.36-3.24v18.25h-11.23V49.54h11.23v2.07
		c1.98-2.07,4.76-3.24,8.36-3.24C460.23,48.38,466.25,51.43,466.25,64.1z M455.01,64.1c0-2.7-1.62-4.49-4.49-4.49
		s-4.49,1.8-4.49,4.49v20.31c0,2.7,1.62,4.49,4.49,4.49s4.49-1.8,4.49-4.49V64.1z"/>
	<path class="st2" d="M472.25,86.84h12.13v12.13h-12.13V86.84z"/>
	<path class="st2" d="M498.05,83.79l5.21-37.03c1.44-9.98,8.81-16.63,18.87-16.63c10.07,0,15.91,6.65,14.38,16.63l-0.54,3.59h-12.13
		l0.54-3.59c0.45-2.88-1.26-4.49-3.87-4.49c-2.88,0-4.76,1.8-5.12,4.49l-5.21,37.03c-0.36,2.7,0.99,4.49,3.86,4.49
		c2.79,0,4.76-1.8,5.12-4.49l0.9-6.38h-5.66l1.71-12.13h17.79l-2.61,18.51c-1.44,9.98-8.81,16.63-18.96,16.63
		C502.27,100.41,496.61,93.76,498.05,83.79z"/>
	<path class="st2" d="M537.88,83.79l5.21-37.03c1.44-9.98,8.81-16.63,18.87-16.63c10.07,0,15.82,6.65,14.38,16.63l-5.21,37.03
		c-1.44,9.98-8.81,16.63-18.96,16.63C542.1,100.41,536.44,93.76,537.88,83.79z M559,83.79l5.21-37.03c0.36-2.7-1.08-4.49-3.87-4.49
		c-2.88,0-4.76,1.8-5.12,4.49l-5.21,37.03c-0.36,2.7,0.99,4.49,3.86,4.49C556.66,88.28,558.64,86.48,559,83.79z"/>
	<path class="st2" d="M579.36,85.49h12.13l-1.89,13.48h-12.13L579.36,85.49z M586.91,31.57h12.13l-6.83,48.53h-12.13L586.91,31.57z"
		/>
</g>
</svg>
